<svg xmlns="http://www.w3.org/2000/svg" xmlns:xlink="http://www.w3.org/1999/xlink" width="1587" zoomAndPan="magnify" viewBox="0 0 1190.25 1683.749945" height="2245" preserveAspectRatio="xMidYMid meet" version="1.0"><defs><clipPath id="62cb8bd043"><path d="M 710 0.40625 L 1189.5 0.40625 L 1189.5 460 L 710 460 Z M 710 0.40625 " clip-rule="nonzero"/></clipPath><clipPath id="f7cd9be4de"><path d="M 0 0.40625 L 365.378906 0.40625 L 365.378906 307.992188 L 0 307.992188 Z M 0 0.40625 " clip-rule="nonzero"/></clipPath><clipPath id="086c8beeff"><path d="M 0 245 L 738 245 L 738 977 L 0 977 Z M 0 245 " clip-rule="nonzero"/></clipPath><clipPath id="1dcd70eb13"><path d="M -139.007812 302.15625 L 708.28125 222.023438 L 776.125 939.421875 L -71.164062 1019.554688 Z M -139.007812 302.15625 " clip-rule="nonzero"/></clipPath><clipPath id="331d555822"><path d="M -139.007812 302.15625 L 708.28125 222.023438 L 776.125 939.421875 L -71.164062 1019.554688 Z M -139.007812 302.15625 " clip-rule="nonzero"/></clipPath><clipPath id="c1b03cae36"><path d="M 692 541 L 1189.5 541 L 1189.5 1396 L 692 1396 Z M 692 541 " clip-rule="nonzero"/></clipPath><clipPath id="b5d355266f"><path d="M 0 923 L 440 923 L 440 1561 L 0 1561 Z M 0 923 " clip-rule="nonzero"/></clipPath><clipPath id="5023f89794"><path d="M -231.078125 1638.957031 L -318.378906 969.015625 L 398.40625 875.609375 L 485.710938 1545.550781 Z M -231.078125 1638.957031 " clip-rule="nonzero"/></clipPath><clipPath id="d08518308d"><path d="M -231.078125 1638.957031 L -318.378906 969.015625 L 398.40625 875.609375 L 485.710938 1545.550781 Z M -231.078125 1638.957031 " clip-rule="nonzero"/></clipPath><clipPath id="a94ef55524"><path d="M 463 1090 L 1126 1090 L 1126 1683.09375 L 463 1683.09375 Z M 463 1090 " clip-rule="nonzero"/></clipPath><clipPath id="e1d89c30d2"><path d="M 969.660156 995.347656 L 1190.277344 1913.257812 L 582.226562 2059.402344 L 361.609375 1141.492188 Z M 969.660156 995.347656 " clip-rule="nonzero"/></clipPath><clipPath id="591f07b844"><path d="M 969.660156 995.347656 L 1190.277344 1913.257812 L 582.226562 2059.402344 L 361.609375 1141.492188 Z M 969.660156 995.347656 " clip-rule="nonzero"/></clipPath><clipPath id="2b18246569"><path d="M 425 0.40625 L 915 0.40625 L 915 193 L 425 193 Z M 425 0.40625 " clip-rule="nonzero"/></clipPath><clipPath id="25f2e9bb42"><path d="M 179.53125 -107.832031 L 609.773438 -570.9375 L 1021.238281 -188.667969 L 590.996094 274.433594 Z M 179.53125 -107.832031 " clip-rule="nonzero"/></clipPath><clipPath id="770815a014"><path d="M 179.53125 -107.832031 L 609.773438 -570.9375 L 1021.238281 -188.667969 L 590.996094 274.433594 Z M 179.53125 -107.832031 " clip-rule="nonzero"/></clipPath><clipPath id="d491fbadeb"><path d="M 0 1504 L 492 1504 L 492 1683.09375 L 0 1683.09375 Z M 0 1504 " clip-rule="nonzero"/></clipPath></defs><g clip-path="url(#62cb8bd043)"><path fill="#28192c" d="M 1060.789062 -87.503906 C 1037.941406 -82.855469 1023.652344 -78.195312 1009.378906 -64.910156 C 963.671875 -24.371094 959.859375 13.511719 924.644531 69.339844 C 879.890625 141.78125 858.949219 150.417969 800.871094 200.941406 C 793.25 206.917969 787.535156 212.910156 780.878906 218.886719 C 726.613281 266.078125 678.046875 357.125 738.984375 415.613281 C 751.367188 426.910156 764.6875 436.21875 782.785156 445.515625 C 799.917969 454.152344 816.109375 464.117188 840.863281 457.484375 C 858.007812 452.835938 874.1875 441.523438 889.429688 433.558594 C 905.621094 424.921875 921.800781 415.613281 941.789062 411.621094 C 960.828125 407.632812 988.453125 405.644531 1008.441406 409.636719 C 1049.386719 417.613281 1107.464844 469.453125 1179.828125 434.890625 C 1279.804688 387.039062 1235.046875 309.933594 1269.324219 230.84375 C 1281.710938 201.597656 1309.320312 157.070312 1292.171875 115.855469 C 1281.695312 89.273438 1264.5625 81.292969 1254.085938 71.984375 C 1248.371094 66.664062 1259.800781 68.667969 1241.703125 59.355469 C 1234.082031 55.367188 1212.1875 34.101562 1204.566406 22.132812 C 1199.804688 14.828125 1196.945312 6.847656 1193.136719 -3.121094 C 1179.800781 -41.671875 1156.953125 -58.289062 1121.722656 -77.550781 C 1101.734375 -88.191406 1086.492188 -92.179688 1060.789062 -87.519531 Z M 1060.789062 -87.503906 " fill-opacity="1" fill-rule="evenodd"/></g><g clip-path="url(#f7cd9be4de)"><path fill="#28192c" d="M 336.589844 44.613281 C 354.34375 57.359375 367.285156 73.984375 365.148438 95.011719 C 362.242188 123.609375 332.683594 140.507812 331.109375 170.230469 C 330.496094 181.664062 333.949219 192.894531 335.011719 204.296875 C 338.394531 240.863281 315.433594 277.003906 283.082031 294.441406 C 227.269531 324.539062 169.1875 296.675781 112.539062 285.703125 C 66.628906 276.800781 19.371094 278.789062 -26.671875 285.660156 C -72.160156 292.445312 -116.867188 304.65625 -163.269531 304.117188 C -191.632812 303.789062 -220.683594 300.289062 -246.9375 289.078125 C -266.9375 279.5 -284.808594 265.265625 -298.089844 247.480469 C -304.597656 238.6875 -310.242188 229.125 -314.125 218.886719 C -317.796875 208.578125 -318.410156 197.398438 -318.238281 186.542969 C -317.882812 171.453125 -314.878906 156.558594 -309.863281 142.34375 C -296.296875 103.917969 -277.304688 77.945312 -240.859375 58.613281 C -207.988281 41.175781 -171.15625 32.582031 -134.980469 25.046875 C 0.226562 -3.117188 142.648438 -24.039062 274.769531 16.160156 C 292.300781 21.492188 317.296875 30.757812 336.589844 44.613281 " fill-opacity="1" fill-rule="nonzero"/></g><g clip-path="url(#086c8beeff)"><g clip-path="url(#1dcd70eb13)"><g clip-path="url(#331d555822)"><path fill="#28192c" d="M -101.203125 444.714844 C -120.953125 488.179688 -105.882812 539.835938 -88.359375 584.644531 C -70.84375 629.457031 -50.597656 677.355469 -61.023438 724.285156 C -64.175781 738.472656 -70.121094 752.253906 -69.789062 766.839844 C -69.15625 794.695312 -45.113281 817.207031 -19.347656 824.730469 C 6.40625 832.253906 33.6875 828.335938 60.195312 825.28125 C 86.699219 822.226562 114.566406 820.285156 139.175781 831.273438 C 189.125 853.570312 207.285156 919.171875 251.222656 952.621094 C 284.589844 978.027344 329.519531 981.636719 369.570312 972.136719 C 409.628906 962.644531 446.027344 941.480469 481.804688 920.582031 C 534.800781 889.617188 588.195312 858.371094 634.105469 816.933594 C 676.792969 778.40625 713.082031 730.097656 729.171875 673.527344 C 745.265625 616.957031 738.859375 551.507812 704.125 504.492188 C 675.621094 465.925781 628.257812 437.242188 622.367188 389.070312 C 618.902344 360.765625 631.382812 331.519531 623.789062 304.070312 C 606.441406 241.375 518.5 240.023438 470.5625 251.65625 C 413.203125 265.574219 367.863281 304.382812 331.292969 350.765625 C 307.632812 380.769531 286.054688 417.554688 247.183594 426.824219 C 189.265625 440.636719 125.195312 401.566406 69.835938 388.441406 C 10.183594 374.289062 -71.1875 378.65625 -101.203125 444.714844 " fill-opacity="1" fill-rule="nonzero"/></g></g></g><g clip-path="url(#c1b03cae36)"><path fill="#28192c" d="M 765.292969 667.351562 C 797.449219 606.289062 871.769531 602.71875 934.117188 608.433594 C 1003.792969 614.859375 1039.699219 596.289062 1098.476562 562.1875 C 1146.175781 534.511719 1190.300781 535.40625 1240.859375 561.292969 C 1301.957031 592.71875 1289.453125 648.960938 1338.9375 684.671875 C 1384.851562 717.882812 1454.167969 703.0625 1502.941406 733.773438 C 1551.890625 764.660156 1565.109375 818.046875 1562.429688 873.21875 C 1558.679688 948.386719 1519.910156 1018.738281 1533.667969 1094.976562 C 1544.746094 1156.398438 1608.878906 1219.425781 1576.902344 1284.238281 C 1517.054688 1405.472656 1330.183594 1303.878906 1234.070312 1321.554688 C 1130.097656 1340.839844 972.527344 1456.003906 872.484375 1353.695312 C 828.179688 1308.523438 852.117188 1236.566406 851.222656 1181.394531 C 849.972656 1104.617188 823.710938 1081.40625 770.117188 1031.414062 C 718.488281 983.382812 677.574219 959.457031 697.941406 886.789062 C 710.089844 843.222656 769.402344 833.582031 780.480469 804.835938 C 793.878906 768.945312 746.890625 701.992188 765.292969 667.351562 Z M 765.292969 667.351562 " fill-opacity="1" fill-rule="nonzero"/></g><g clip-path="url(#b5d355266f)"><g clip-path="url(#5023f89794)"><g clip-path="url(#d08518308d)"><path fill="#28192c" d="M 361.375 1559.359375 C 340.171875 1563.96875 316.621094 1558.3125 299.085938 1546.003906 C 276.390625 1530.171875 268.554688 1507.375 262.210938 1481.863281 C 254.714844 1452.648438 229.839844 1430.390625 199.824219 1426.585938 C 182.9375 1424.425781 165.804688 1426.824219 149.003906 1429.183594 C 112.410156 1434.117188 74.867188 1434.3125 49.246094 1403.765625 C 22.074219 1371.578125 37.273438 1331.183594 19 1296.492188 C 5.621094 1271.058594 -24.875 1258.425781 -52.101562 1255.433594 C -121.171875 1247.992188 -194.9375 1268.84375 -249.324219 1213.195312 C -279.894531 1181.953125 -296.210938 1139.121094 -288.167969 1095.296875 C -280.90625 1055.769531 -248.609375 1026.902344 -211.410156 1015.007812 C -191.761719 1008.757812 -170.402344 1006.644531 -150.007812 1008.683594 C -127.054688 1011.0625 -103.011719 1016.652344 -81.871094 1003.832031 C -63.074219 992.324219 -50.429688 972.222656 -32.902344 958.699219 C -12.355469 942.601562 10.640625 929.875 36.550781 925.324219 C 83.296875 917.222656 117.097656 938.480469 146.980469 972.164062 C 163.5 990.8125 181.230469 1012.320312 207.914062 1013.707031 C 231.210938 1014.867188 252.402344 1003.71875 274.914062 1000.113281 C 292.640625 997.132812 311.296875 998.726562 328.628906 1003.011719 C 363.785156 1011.511719 394.726562 1033.984375 409.652344 1067.4375 C 428.980469 1110.210938 415.191406 1160.148438 403.019531 1203.171875 C 397.308594 1223.707031 392.660156 1245.953125 396.9375 1267.203125 C 401.324219 1289.277344 412.832031 1308.078125 420.757812 1329.019531 C 440.128906 1379.839844 447.375 1431.566406 430.566406 1484.082031 C 421.390625 1512.789062 402.277344 1542.453125 373.753906 1555.230469 C 369.800781 1557.085938 365.597656 1558.304688 361.375 1559.359375 Z M 361.375 1559.359375 " fill-opacity="1" fill-rule="nonzero"/></g></g></g><g clip-path="url(#a94ef55524)"><g clip-path="url(#e1d89c30d2)"><g clip-path="url(#591f07b844)"><path fill="#28192c" d="M 751.003906 1238.539062 C 755.140625 1254.875 757.882812 1271.546875 759.175781 1288.355469 C 761.382812 1314.242188 767.480469 1339.617188 777.078125 1363.730469 C 786.199219 1385.84375 798.824219 1405.847656 812.753906 1425.113281 C 822.890625 1439.160156 837.128906 1446.519531 853.347656 1449.804688 C 873.992188 1453.933594 894.644531 1457.210938 915.449219 1460.242188 C 934.308594 1463.105469 953.386719 1464.226562 971.625 1469.777344 C 997.277344 1477.136719 1020.671875 1490.957031 1039.589844 1509.871094 C 1053.316406 1523.902344 1067.347656 1537.4375 1081.273438 1551.421875 C 1091.300781 1561.480469 1098.464844 1573.707031 1104.480469 1586.421875 C 1119.148438 1617.558594 1126.929688 1649.929688 1125.566406 1684.707031 C 1123.996094 1725.660156 1118.992188 1766.386719 1110.503906 1806.679688 C 1104.152344 1836.527344 1090.800781 1863.621094 1075.066406 1889.59375 C 1066.664062 1903.871094 1056.523438 1917.085938 1044.757812 1928.792969 C 1031.429688 1941.925781 1015.242188 1951.949219 997.351562 1957.515625 C 978.109375 1963.621094 958.871094 1968.878906 938.5 1967.644531 C 898.851562 1965.339844 864.042969 1951.515625 838.054688 1920.773438 C 828.09375 1909.21875 819.992188 1895.738281 812.339844 1882.359375 C 795.316406 1852.847656 773.726562 1826.332031 748.214844 1803.722656 C 729.085938 1786.550781 706.824219 1773.9375 684.058594 1761.867188 C 659.15625 1748.828125 634.003906 1736.488281 609.859375 1722.210938 C 575.113281 1701.609375 542.535156 1677.738281 515.25 1647.730469 C 499.707031 1630.542969 485.816406 1612.324219 476.691406 1591.058594 C 460.828125 1554.078125 458.828125 1516.730469 476.109375 1479.605469 C 485.667969 1458.710938 496.21875 1438.421875 506.074219 1417.875 C 515.160156 1399.417969 524.050781 1381.007812 528.46875 1360.710938 C 533.960938 1337.835938 533.28125 1313.90625 526.808594 1291.367188 C 521.679688 1274.425781 515.75 1257.671875 510.269531 1241.027344 C 504.308594 1222.378906 499.746094 1203.398438 499.429688 1183.609375 C 498.601562 1148.511719 514.976562 1123.441406 544.683594 1106.367188 C 572.035156 1090.917969 601.613281 1088.246094 632.023438 1092.5625 C 646.90625 1094.691406 661.316406 1099.257812 674.5625 1106.007812 C 692.667969 1115.394531 705.292969 1130.113281 715.75 1147.253906 C 727.289062 1166.25 734.976562 1186.804688 741.515625 1207.847656 Z M 751.003906 1238.539062 " fill-opacity="1" fill-rule="nonzero"/></g></g></g><g clip-path="url(#2b18246569)"><g clip-path="url(#25f2e9bb42)"><g clip-path="url(#770815a014)"><path fill="#28192c" d="M 443.816406 -385.371094 C 431.671875 -365.472656 425.359375 -351.832031 425.378906 -332.332031 C 423.96875 -271.25 449.128906 -242.675781 466.058594 -178.878906 C 488.667969 -96.78125 480.742188 -75.558594 478.226562 1.375 C 477.421875 11.027344 477.917969 19.292969 477.769531 28.234375 C 475.40625 100.113281 509.054688 197.664062 593.378906 192.828125 C 610.082031 191.445312 625.96875 188.023438 645.097656 181.089844 C 663.085938 174.417969 681.410156 169.335938 693.394531 146.6875 C 701.660156 130.960938 704.386719 111.410156 708.925781 94.824219 C 713.617188 77.082031 717.8125 58.890625 728.492188 41.53125 C 738.527344 24.867188 755.871094 3.277344 772.402344 -8.652344 C 806.117188 -33.21875 883.621094 -40.484375 907.554688 -117.023438 C 940.546875 -222.835938 853.597656 -242.527344 818.980469 -321.472656 C 805.984375 -350.449219 792.152344 -400.988281 750.289062 -416.476562 C 723.683594 -426.894531 706.175781 -419.773438 692.226562 -418.433594 C 684.4375 -417.867188 693.683594 -424.878906 674.546875 -417.953125 C 666.4375 -415.085938 635.957031 -413.519531 622 -416.085938 C 613.40625 -417.570312 605.613281 -420.90625 595.71875 -424.898438 C 558.398438 -441.367188 530.671875 -435.941406 492.582031 -423.242188 C 471.183594 -415.835938 457.886719 -407.386719 443.804688 -385.382812 Z M 443.816406 -385.371094 " fill-opacity="1" fill-rule="evenodd"/></g></g></g><g clip-path="url(#d491fbadeb)"><path fill="#28192c" d="M -199.675781 1610.621094 C -172.566406 1559.089844 -109.917969 1556.078125 -57.355469 1560.898438 C 1.378906 1566.324219 31.648438 1550.652344 81.195312 1521.875 C 121.40625 1498.519531 158.605469 1499.273438 201.226562 1521.121094 C 252.730469 1547.640625 242.191406 1595.101562 283.90625 1625.238281 C 322.609375 1653.261719 381.042969 1640.757812 422.15625 1666.671875 C 463.421875 1692.738281 474.566406 1737.792969 472.308594 1784.351562 C 469.144531 1847.785156 436.464844 1907.152344 448.0625 1971.488281 C 457.398438 2023.320312 511.464844 2076.511719 484.507812 2131.207031 C 434.054688 2233.515625 276.527344 2147.78125 195.503906 2162.699219 C 107.851562 2178.96875 -24.976562 2276.15625 -109.3125 2189.820312 C -146.664062 2151.699219 -126.484375 2090.976562 -127.234375 2044.417969 C -128.289062 1979.625 -150.429688 1960.039062 -195.609375 1917.847656 C -239.132812 1877.316406 -273.621094 1857.125 -256.453125 1795.800781 C -246.210938 1759.035156 -196.210938 1750.902344 -186.875 1726.640625 C -175.578125 1696.355469 -215.1875 1639.851562 -199.675781 1610.621094 Z M -199.675781 1610.621094 " fill-opacity="1" fill-rule="nonzero"/></g></svg>