<svg xmlns="http://www.w3.org/2000/svg" xmlns:xlink="http://www.w3.org/1999/xlink" width="1587" zoomAndPan="magnify" viewBox="0 0 1190.25 1700.999928" height="2267" preserveAspectRatio="xMidYMid meet" version="1.0"><defs><clipPath id="c60a2f5a9a"><path d="M 727 0.535156 L 1189.5 0.535156 L 1189.5 500 L 727 500 Z M 727 0.535156 " clip-rule="nonzero"/></clipPath><clipPath id="f51ffee56f"><path d="M 0 56.390625 L 399.070312 56.390625 L 399.070312 355.347656 L 0 355.347656 Z M 0 56.390625 " clip-rule="nonzero"/></clipPath><clipPath id="38340f60ea"><path d="M 0 296 L 754 296 L 754 992 L 0 992 Z M 0 296 " clip-rule="nonzero"/></clipPath><clipPath id="102f8aaf70"><path d="M -80.875 349.792969 L 725.355469 273.546875 L 789.914062 956.179688 L -16.316406 1032.429688 Z M -80.875 349.792969 " clip-rule="nonzero"/></clipPath><clipPath id="da2e1eb596"><path d="M -80.875 349.792969 L 725.355469 273.546875 L 789.914062 956.179688 L -16.316406 1032.429688 Z M -80.875 349.792969 " clip-rule="nonzero"/></clipPath><clipPath id="e1f26f53f2"><path d="M 710 577 L 1189.5 577 L 1189.5 1391 L 710 1391 Z M 710 577 " clip-rule="nonzero"/></clipPath><clipPath id="ec616d46d9"><path d="M 0 941 L 471 941 L 471 1548 L 0 1548 Z M 0 941 " clip-rule="nonzero"/></clipPath><clipPath id="f12260f4e1"><path d="M -168.484375 1621.820312 L -251.554688 984.339844 L 430.5 895.457031 L 513.570312 1532.9375 Z M -168.484375 1621.820312 " clip-rule="nonzero"/></clipPath><clipPath id="2b2defb22c"><path d="M -168.484375 1621.820312 L -251.554688 984.339844 L 430.5 895.457031 L 513.570312 1532.9375 Z M -168.484375 1621.820312 " clip-rule="nonzero"/></clipPath><clipPath id="875488a691"><path d="M 492 1100 L 1123 1100 L 1123 1700.464844 L 492 1700.464844 Z M 492 1100 " clip-rule="nonzero"/></clipPath><clipPath id="61c1413740"><path d="M 974.070312 1009.398438 L 1183.996094 1882.828125 L 605.410156 2021.890625 L 395.480469 1148.460938 Z M 974.070312 1009.398438 " clip-rule="nonzero"/></clipPath><clipPath id="6d6947c9df"><path d="M 974.070312 1009.398438 L 1183.996094 1882.828125 L 605.410156 2021.890625 L 395.480469 1148.460938 Z M 974.070312 1009.398438 " clip-rule="nonzero"/></clipPath><clipPath id="a56e09e439"><path d="M 456 0.535156 L 922 0.535156 L 922 246 L 456 246 Z M 456 0.535156 " clip-rule="nonzero"/></clipPath><clipPath id="b209020445"><path d="M 222.230469 -40.328125 L 631.621094 -480.992188 L 1023.148438 -117.25 L 613.753906 323.414062 Z M 222.230469 -40.328125 " clip-rule="nonzero"/></clipPath><clipPath id="47b11fdc82"><path d="M 222.230469 -40.328125 L 631.621094 -480.992188 L 1023.148438 -117.25 L 613.753906 323.414062 Z M 222.230469 -40.328125 " clip-rule="nonzero"/></clipPath><clipPath id="f421cf6e53"><path d="M 0 1493 L 520 1493 L 520 1700.464844 L 0 1700.464844 Z M 0 1493 " clip-rule="nonzero"/></clipPath></defs><g clip-path="url(#c60a2f5a9a)"><path fill="#c97556" d="M 1060.785156 -20.984375 C 1039.042969 -16.5625 1025.449219 -12.125 1011.867188 0.515625 C 968.371094 39.089844 964.746094 75.136719 931.238281 128.257812 C 888.648438 197.191406 868.722656 205.410156 813.460938 253.484375 C 806.207031 259.171875 800.769531 264.871094 794.4375 270.558594 C 742.800781 315.464844 696.589844 402.101562 754.570312 457.753906 C 766.355469 468.503906 779.03125 477.359375 796.25 486.207031 C 812.554688 494.425781 827.960938 503.90625 851.515625 497.59375 C 867.828125 493.171875 883.226562 482.410156 897.726562 474.828125 C 913.136719 466.609375 928.53125 457.753906 947.550781 453.957031 C 965.667969 450.160156 991.953125 448.269531 1010.972656 452.066406 C 1049.933594 459.65625 1105.195312 508.984375 1174.054688 476.09375 C 1269.1875 430.566406 1226.597656 357.195312 1259.214844 281.9375 C 1271 254.109375 1297.269531 211.738281 1280.957031 172.523438 C 1270.984375 147.226562 1254.683594 139.632812 1244.714844 130.773438 C 1239.277344 125.714844 1250.152344 127.617188 1232.929688 118.761719 C 1225.679688 114.964844 1204.847656 94.730469 1197.59375 83.339844 C 1193.0625 76.386719 1190.34375 68.796875 1186.71875 59.3125 C 1174.027344 22.625 1152.289062 6.816406 1118.765625 -11.515625 C 1099.746094 -21.636719 1085.242188 -25.433594 1060.785156 -21 Z M 1060.785156 -20.984375 " fill-opacity="1" fill-rule="evenodd"/></g><g clip-path="url(#f51ffee56f)"><path fill="#c97556" d="M 371.679688 104.730469 C 388.570312 116.859375 400.882812 132.679688 398.851562 152.6875 C 396.085938 179.898438 367.960938 195.976562 366.460938 224.261719 C 365.878906 235.140625 369.164062 245.828125 370.175781 256.675781 C 373.394531 291.46875 351.546875 325.859375 320.761719 342.453125 C 267.65625 371.089844 212.386719 344.582031 158.484375 334.136719 C 114.796875 325.667969 69.828125 327.558594 26.019531 334.097656 C -17.269531 340.554688 -59.808594 352.171875 -103.960938 351.660156 C -130.953125 351.347656 -158.59375 348.015625 -183.574219 337.351562 C -202.605469 328.234375 -219.613281 314.691406 -232.25 297.765625 C -238.441406 289.402344 -243.8125 280.304688 -247.503906 270.558594 C -251 260.75 -251.585938 250.113281 -251.421875 239.78125 C -251.085938 225.421875 -248.226562 211.253906 -243.449219 197.726562 C -230.542969 161.160156 -212.46875 136.445312 -177.792969 118.050781 C -146.511719 101.460938 -111.464844 93.28125 -77.042969 86.113281 C 51.613281 59.3125 187.132812 39.40625 312.851562 77.65625 C 329.53125 82.730469 353.316406 91.546875 371.679688 104.730469 " fill-opacity="1" fill-rule="nonzero"/></g><g clip-path="url(#38340f60ea)"><g clip-path="url(#102f8aaf70)"><g clip-path="url(#da2e1eb596)"><path fill="#c97556" d="M -44.902344 485.445312 C -63.691406 526.804688 -49.355469 575.957031 -32.683594 618.59375 C -16.015625 661.234375 3.25 706.8125 -6.671875 751.46875 C -9.667969 764.96875 -15.324219 778.082031 -15.007812 791.960938 C -14.410156 818.464844 8.46875 839.886719 32.984375 847.046875 C 57.496094 854.203125 83.453125 850.480469 108.671875 847.570312 C 133.894531 844.664062 160.410156 842.816406 183.828125 853.269531 C 231.355469 874.492188 248.636719 936.914062 290.445312 968.742188 C 322.195312 992.917969 364.949219 996.351562 403.0625 987.3125 C 441.179688 978.277344 475.808594 958.140625 509.855469 938.253906 C 560.28125 908.789062 611.089844 879.054688 654.777344 839.625 C 695.394531 802.964844 729.925781 757 745.234375 703.171875 C 760.550781 649.339844 754.453125 587.0625 721.402344 542.328125 C 694.277344 505.628906 649.210938 478.335938 643.605469 432.5 C 640.3125 405.5625 652.183594 377.734375 644.960938 351.613281 C 628.453125 291.960938 544.773438 290.671875 499.160156 301.738281 C 444.578125 314.984375 401.4375 351.914062 366.636719 396.050781 C 344.125 424.597656 323.589844 459.601562 286.605469 468.421875 C 231.492188 481.566406 170.523438 444.390625 117.847656 431.898438 C 61.085938 418.433594 -16.339844 422.585938 -44.902344 485.445312 " fill-opacity="1" fill-rule="nonzero"/></g></g></g><g clip-path="url(#e1f26f53f2)"><path fill="#c97556" d="M 779.605469 697.292969 C 810.207031 639.191406 880.921875 635.792969 940.25 641.230469 C 1006.546875 647.34375 1040.71875 629.675781 1096.644531 597.226562 C 1142.03125 570.890625 1184.019531 571.742188 1232.128906 596.375 C 1290.265625 626.277344 1278.367188 679.796875 1325.457031 713.773438 C 1369.144531 745.375 1435.101562 731.273438 1481.511719 760.496094 C 1528.089844 789.886719 1540.667969 840.6875 1538.117188 893.1875 C 1534.546875 964.710938 1497.660156 1031.652344 1510.75 1104.199219 C 1521.289062 1162.640625 1582.316406 1222.617188 1551.886719 1284.289062 C 1494.941406 1399.648438 1317.125 1302.976562 1225.667969 1319.796875 C 1126.734375 1338.144531 976.800781 1447.730469 881.601562 1350.378906 C 839.445312 1307.394531 862.222656 1238.925781 861.375 1186.429688 C 860.183594 1113.371094 835.195312 1091.285156 784.195312 1043.714844 C 735.070312 998.011719 696.140625 975.246094 715.519531 906.097656 C 727.078125 864.644531 783.515625 855.46875 794.054688 828.117188 C 806.804688 793.964844 762.097656 730.253906 779.605469 697.292969 Z M 779.605469 697.292969 " fill-opacity="1" fill-rule="nonzero"/></g><g clip-path="url(#ec616d46d9)"><g clip-path="url(#f12260f4e1)"><g clip-path="url(#2b2defb22c)"><path fill="#c97556" d="M 395.261719 1546.078125 C 375.085938 1550.460938 352.675781 1545.082031 335.988281 1533.371094 C 314.394531 1518.304688 306.9375 1496.613281 300.902344 1472.335938 C 293.769531 1444.535156 270.101562 1423.359375 241.539062 1419.738281 C 225.46875 1417.679688 209.167969 1419.964844 193.183594 1422.207031 C 158.363281 1426.90625 122.636719 1427.089844 98.257812 1398.023438 C 72.402344 1367.394531 86.863281 1328.957031 69.476562 1295.949219 C 56.746094 1271.746094 27.726562 1259.726562 1.820312 1256.878906 C -63.902344 1249.800781 -134.09375 1269.640625 -185.84375 1216.6875 C -214.9375 1186.957031 -230.460938 1146.203125 -222.808594 1104.503906 C -215.898438 1066.890625 -185.164062 1039.421875 -149.769531 1028.105469 C -131.074219 1022.15625 -110.746094 1020.144531 -91.339844 1022.085938 C -69.5 1024.347656 -46.621094 1029.667969 -26.507812 1017.46875 C -8.621094 1006.519531 3.410156 987.390625 20.089844 974.523438 C 39.636719 959.207031 61.523438 947.097656 86.175781 942.765625 C 130.65625 935.054688 162.820312 955.285156 191.257812 987.335938 C 206.976562 1005.078125 223.847656 1025.546875 249.238281 1026.867188 C 271.40625 1027.96875 291.570312 1017.359375 312.988281 1013.929688 C 329.855469 1011.09375 347.609375 1012.613281 364.101562 1016.6875 C 397.554688 1024.777344 426.996094 1046.160156 441.199219 1077.992188 C 459.589844 1118.691406 446.46875 1166.210938 434.886719 1207.148438 C 429.453125 1226.691406 425.027344 1247.859375 429.101562 1268.078125 C 433.273438 1289.082031 444.222656 1306.96875 451.769531 1326.898438 C 470.199219 1375.253906 477.09375 1424.476562 461.101562 1474.449219 C 452.371094 1501.761719 434.183594 1529.992188 407.039062 1542.148438 C 403.277344 1543.914062 399.28125 1545.074219 395.261719 1546.078125 Z M 395.261719 1546.078125 " fill-opacity="1" fill-rule="nonzero"/></g></g></g><g clip-path="url(#875488a691)"><g clip-path="url(#61c1413740)"><g clip-path="url(#6d6947c9df)"><path fill="#c97556" d="M 766.011719 1240.800781 C 769.949219 1256.347656 772.554688 1272.210938 773.785156 1288.207031 C 775.882812 1312.839844 781.6875 1336.984375 790.820312 1359.929688 C 799.5 1380.96875 811.511719 1400.003906 824.765625 1418.335938 C 834.414062 1431.703125 847.960938 1438.703125 863.394531 1441.832031 C 883.039062 1445.757812 902.6875 1448.878906 922.484375 1451.761719 C 940.433594 1454.488281 958.585938 1455.554688 975.941406 1460.835938 C 1000.347656 1467.839844 1022.613281 1480.992188 1040.613281 1498.988281 C 1053.671875 1512.339844 1067.023438 1525.21875 1080.277344 1538.523438 C 1089.816406 1548.097656 1096.632812 1559.730469 1102.359375 1571.832031 C 1116.316406 1601.457031 1123.71875 1632.257812 1122.421875 1665.347656 C 1120.929688 1704.320312 1116.167969 1743.074219 1108.089844 1781.414062 C 1102.046875 1809.816406 1089.339844 1835.59375 1074.367188 1860.308594 C 1066.371094 1873.894531 1056.726562 1886.46875 1045.527344 1897.609375 C 1032.847656 1910.109375 1017.445312 1919.640625 1000.417969 1924.941406 C 982.109375 1930.75 963.804688 1935.75 944.421875 1934.578125 C 906.691406 1932.382812 873.570312 1919.230469 848.84375 1889.976562 C 839.363281 1878.984375 831.65625 1866.15625 824.375 1853.425781 C 808.171875 1825.34375 787.632812 1800.113281 763.355469 1778.597656 C 745.152344 1762.257812 723.96875 1750.257812 702.308594 1738.769531 C 678.613281 1726.367188 654.675781 1714.625 631.707031 1701.039062 C 598.640625 1681.433594 567.644531 1658.71875 541.679688 1630.167969 C 526.890625 1613.8125 513.671875 1596.476562 504.988281 1576.238281 C 489.898438 1541.054688 487.992188 1505.515625 504.433594 1470.1875 C 513.53125 1450.304688 523.570312 1431 532.945312 1411.449219 C 541.59375 1393.886719 550.054688 1376.367188 554.257812 1357.054688 C 559.484375 1335.289062 558.835938 1312.515625 552.675781 1291.070312 C 547.796875 1274.949219 542.15625 1259.007812 536.941406 1243.167969 C 531.269531 1225.425781 526.929688 1207.363281 526.625 1188.535156 C 525.835938 1155.136719 541.417969 1131.28125 569.6875 1115.035156 C 595.714844 1100.335938 623.855469 1097.792969 652.796875 1101.898438 C 666.957031 1103.925781 680.667969 1108.273438 693.273438 1114.695312 C 710.5 1123.625 722.511719 1137.632812 732.464844 1153.941406 C 743.445312 1172.015625 750.761719 1191.578125 756.980469 1211.601562 Z M 766.011719 1240.800781 " fill-opacity="1" fill-rule="nonzero"/></g></g></g><g clip-path="url(#a56e09e439)"><g clip-path="url(#b209020445)"><g clip-path="url(#47b11fdc82)"><path fill="#c97556" d="M 473.707031 -304.417969 C 462.152344 -285.484375 456.144531 -272.503906 456.164062 -253.949219 C 454.820312 -195.828125 478.761719 -168.636719 494.871094 -107.929688 C 516.386719 -29.8125 508.84375 -9.621094 506.453125 63.589844 C 505.683594 72.773438 506.160156 80.636719 506.015625 89.144531 C 503.765625 157.539062 535.785156 250.363281 616.023438 245.765625 C 631.917969 244.449219 647.035156 241.191406 665.234375 234.59375 C 682.351562 228.246094 699.789062 223.410156 711.195312 201.859375 C 719.058594 186.894531 721.652344 168.292969 725.96875 152.507812 C 730.4375 135.625 734.425781 118.316406 744.589844 101.796875 C 754.136719 85.941406 770.644531 65.398438 786.371094 54.046875 C 818.453125 30.671875 892.203125 23.757812 914.976562 -49.074219 C 946.371094 -149.757812 863.632812 -168.496094 830.695312 -243.617188 C 818.328125 -271.1875 805.167969 -319.277344 765.332031 -334.015625 C 740.011719 -343.929688 723.355469 -337.152344 710.078125 -335.878906 C 702.667969 -335.339844 711.46875 -342.011719 693.257812 -335.421875 C 685.539062 -332.695312 656.535156 -331.203125 643.257812 -333.644531 C 635.078125 -335.054688 627.664062 -338.230469 618.25 -342.03125 C 582.738281 -357.703125 556.355469 -352.535156 520.109375 -340.453125 C 499.746094 -333.40625 487.097656 -325.367188 473.699219 -304.429688 Z M 473.707031 -304.417969 " fill-opacity="1" fill-rule="evenodd"/></g></g></g><g clip-path="url(#f421cf6e53)"><path fill="#c97556" d="M -138.601562 1594.855469 C -112.808594 1545.820312 -53.191406 1542.953125 -3.179688 1547.542969 C 52.707031 1552.703125 81.511719 1537.792969 128.660156 1510.40625 C 166.921875 1488.183594 202.316406 1488.902344 242.871094 1509.691406 C 291.882812 1534.925781 281.851562 1580.089844 321.546875 1608.761719 C 358.375 1635.429688 413.976562 1623.53125 453.097656 1648.191406 C 492.363281 1672.996094 502.96875 1715.863281 500.820312 1760.167969 C 497.808594 1820.527344 466.710938 1877.015625 477.746094 1938.238281 C 486.632812 1987.558594 538.078125 2038.167969 512.425781 2090.214844 C 464.417969 2187.566406 314.523438 2105.984375 237.425781 2120.179688 C 154.023438 2135.664062 27.628906 2228.140625 -52.621094 2145.988281 C -88.160156 2109.714844 -68.957031 2051.933594 -69.671875 2007.628906 C -70.675781 1945.980469 -91.742188 1927.339844 -134.734375 1887.195312 C -176.148438 1848.628906 -208.964844 1829.417969 -192.628906 1771.0625 C -182.882812 1736.078125 -135.304688 1728.335938 -126.421875 1705.253906 C -115.671875 1676.4375 -153.363281 1622.671875 -138.601562 1594.855469 Z M -138.601562 1594.855469 " fill-opacity="1" fill-rule="nonzero"/></g></svg>